# xmcd
#
# Track frame offsets:
#	150
#	11812
#	24078
#	37998
#	50796
#	64482
#	78098
#	90759
#	101654
#	115874
#	128152
#	140211
#	154953
#	167651
#	178491
#	191556
#	205026
#	211820
#	222820
#	233346
#	244250
#	253856
#	265361
#	278345
#	289314
#
# Disc length: 3999 seconds
#
# Revision: 2
# Processed by: cddbd v1.5.2PL0 Copyright (c) Steve Scherf et al.
# Submitted via: EasyCDDAExtractor 16.0.9.1
#
DISCID=670f9d19
DTITLE=María Dolores Pradera - Orígenes
DYEAR=2014
DGENRE=Canción Melódica
TTITLE0=Engañada
TTITLE1=Que nadie sepa mi sufrir
TTITLE2=Facundo
TTITLE3=Negra María
TTITLE4=Drume Lacho
TTITLE5=Dos cruces
TTITLE6=María Dolores
TTITLE7=Islas Canarias
TTITLE8=Luna de España
TTITLE9=Pa' todo el año
TTITLE10=La noche de mi mal
TTITLE11=Llegando a ti
TTITLE12=Fallaste corazón
TTITLE13=Fina estampa
TTITLE14=Fuego lento
TTITLE15=Las barandillas del puente
TTITLE16=El ramilletillo
TTITLE17=El rosario de mi madre
TTITLE18=Limeña
TTITLE19=Que si te quiero, júralo
TTITLE20=Quisiera amarte menos
TTITLE21=Amarraditos
TTITLE22=Caballo de paso
TTITLE23=Hace un año
TTITLE24=No me digas que no
EXTD=
EXTT0=
EXTT1=
EXTT2=
EXTT3=
EXTT4=
EXTT5=
EXTT6=
EXTT7=
EXTT8=
EXTT9=
EXTT10=
EXTT11=
EXTT12=
EXTT13=
EXTT14=
EXTT15=
EXTT16=
EXTT17=
EXTT18=
EXTT19=
EXTT20=
EXTT21=
EXTT22=
EXTT23=
EXTT24=
PLAYORDER=
